<?xml version="1.0" encoding="iso-8859-1"?>
<!-- Generator: Adobe Illustrator 19.0.0, SVG Export Plug-In . SVG Version: 6.00 Build 0)  -->
<svg version="1.1" id="Capa_1" xmlns="http://www.w3.org/2000/svg" xmlns:xlink="http://www.w3.org/1999/xlink" x="0px" y="0px"
	 viewBox="0 0 512.001 512.001" style="enable-background:new 0 0 512.001 512.001;" xml:space="preserve">
<path style="fill:#FFFFFF;" d="M273.973,187.012c-7.634,3.088-13.034,10.627-13.034,19.456c0,11.577,9.272,20.96,20.709,20.96
	c4.273,0,8.243-1.311,11.541-3.556v-27.596c-0.649,0.062-1.306,0.101-1.971,0.101C284.018,196.376,277.682,192.654,273.973,187.012z
	"/>
<path style="fill:#90A7BB;" d="M227.46,499.614l32.643-150.058v-3.755c0-10.569-8.496-19.167-18.937-19.167h-43.283v33.263
	c0,1.65-1.211,2.403-2.691,1.674l-40.114-19.766v8.254c0,1.65-1.35,3-3,3h-26.35c-1.65,0-3-1.35-3-3v-8.252l-40.114,19.766
	c-1.48,0.729-2.691-0.024-2.691-1.674v-33.264H36.641c-10.44,0-18.936,8.598-18.936,19.167v152.31c0,3.528,2.827,6.389,6.314,6.389
	h207.379C228.647,504.5,226.875,502.301,227.46,499.614z"/>
<path style="fill:#FF484E;" d="M273.216,109.054c-1.654,0-3.242-0.669-4.412-1.857l-43.059-43.791
	c-6.087-6.185-9.441-14.409-9.441-23.156s3.354-16.972,9.441-23.157c6.087-6.186,14.183-9.593,22.791-9.593
	c8.608,0,16.702,3.407,22.79,9.593l1.891,1.922l1.893-1.922c6.088-6.186,14.18-9.593,22.791-9.593
	c8.609,0,16.703,3.407,22.789,9.593c6.088,6.185,9.443,14.411,9.443,23.157s-3.355,16.971-9.443,23.156l-43.059,43.791
	C276.46,108.385,274.874,109.054,273.216,109.054z"/>
<g style="opacity:0.1;">
	<path style="fill:#37005E;" d="M246.613,53.352c-6.087-6.185-9.44-14.409-9.44-23.156c0-8.486,3.165-16.475,8.912-22.593
		c-7.685,0.584-14.834,3.896-20.34,9.49c-6.087,6.185-9.441,14.411-9.441,23.157s3.354,16.971,9.441,23.156l43.059,43.791
		c1.17,1.188,2.758,1.857,4.412,1.857c1.658,0,3.244-0.669,4.414-1.857l10.965-11.151L246.613,53.352z"/>
</g>
<g>
	<path style="fill:#FFB98A;" d="M68.148,224.841v-31.078H56.16c-8.25,0-15,6.75-15,15v13.445c0,8.25,6.75,15,15,15h13.061
		C68.529,233.189,68.148,229.061,68.148,224.841z"/>
	<path style="fill:#FFB98A;" d="M221.649,193.763h-11.99v31.078c0,4.22-0.381,8.347-1.073,12.367h13.063c8.25,0,15-6.75,15-15
		v-13.445C236.649,200.513,229.899,193.763,221.649,193.763z"/>
</g>
<g style="opacity:0.1;">
	<path style="fill:#37005E;" d="M38.602,498.111v-152.31c0-10.569,8.496-19.167,18.937-19.167H36.641
		c-10.44,0-18.936,8.598-18.936,19.167v152.31c0,3.528,2.827,6.389,6.314,6.389h20.898C41.43,504.5,38.602,501.639,38.602,498.111z"
		/>
</g>
<path style="fill:#FFB98A;" d="M122.728,330.633v-7.052c0-1.65,1.35-3,3-3h26.35c1.65,0,3,1.35,3,3v7.05l9.707-4.783v-34.36
	c-8.019,3.192-16.743,4.965-25.881,4.965s-17.862-1.772-25.881-4.965v34.363L122.728,330.633z"/>
<g style="opacity:0.1;">
	<path style="fill:#37005E;" d="M131.001,295.99c-6.275-0.712-12.306-2.243-17.978-4.501v34.363l9.705,4.782v-7.052
		c0-1.65,1.35-3,3-3h5.273V295.99z"/>
</g>
<path style="fill:#B9CCD3;" d="M226.801,374.083c1.962-1.927,1.986-5.104,0.053-7.06l-28.972-29.316v22.19
	c0,1.65-1.211,2.403-2.691,1.674l-8.68-4.277l-47.607,144.657L91.297,357.294l-8.683,4.278c-1.48,0.729-2.691-0.024-2.691-1.674
	v-22.191l-28.971,29.316c-1.933,1.956-1.909,5.133,0.053,7.06l27.082,26.597c1.962,1.927,1.962,5.081,0,7.007l-17.212,16.904
	c-1.962,1.927-1.925,5.042,0.083,6.921l74.296,69.571c2.007,1.879,5.292,1.879,7.3,0l74.295-69.571
	c2.008-1.879,2.044-4.994,0.083-6.921l-17.212-16.904c-1.962-1.926-1.962-5.08,0-7.007L226.801,374.083z"/>
<path style="fill:#FFC12E;" d="M202.823,91.991h-62.669c-10.32,0-19.382,5.542-24.443,13.836H96.856
	c-15.854,0-28.708,13.008-28.708,29.055v47.333c0-39.551,31.679-52.215,70.756-52.215c39.076,0,70.755,12.665,70.755,52.215V98.908
	C209.659,95.088,206.598,91.991,202.823,91.991z"/>
<g style="opacity:0.1;">
	<path style="fill:#37005E;" d="M89.001,141.199v-6.317c0-16.047,12.854-29.055,28.708-29.055H96.856
		c-15.854,0-28.708,13.008-28.708,29.055v47.333C68.148,162.375,76.122,149.303,89.001,141.199z"/>
</g>
<g style="opacity:0.1;">
	<path style="fill:#37005E;" d="M132.001,130.142v-9.095c0-16.022,12.878-29.056,28.709-29.056h-20.556
		c-15.831,0-28.709,13.033-28.709,29.056v11.534C117.868,131.217,124.776,130.438,132.001,130.142z"/>
</g>
<path style="fill:#FFD5B3;" d="M209.659,224.841c0,39.551-31.679,71.612-70.755,71.612l0,0c-39.077,0-70.756-32.062-70.756-71.612
	v-42.626c0-39.551,31.679-52.215,70.756-52.215l0,0c39.076,0,70.755,12.665,70.755,52.215V224.841z"/>
<g style="opacity:0.1;">
	<path style="fill:#37005E;" d="M89.001,224.841v-42.626c0-35.964,26.197-49.694,60.329-51.888
		c-3.403-0.22-6.883-0.327-10.426-0.327c-39.077,0-70.756,12.665-70.756,52.215v42.626c0,39.551,31.679,71.612,70.756,71.612
		c3.543,0,7.023-0.272,10.426-0.78C115.198,290.57,89.001,260.806,89.001,224.841z"/>
</g>
<path style="fill:#FFFFFF;" d="M155.078,341.805v8.254c0,1.65-1.35,3-3,3h-26.35c-1.65,0-3-1.35-3-3v-8.252l-31.431,15.487
	l47.607,144.657l47.607-144.657L155.078,341.805z"/>
<g style="opacity:0.1;">
	<polygon style="fill:#37005E;" points="91.297,357.294 138.904,501.951 149.301,470.358 109.189,348.478 	"/>
</g>
<g>
	<path style="fill:#92DEEE;" d="M122.728,330.633l-40.114-19.767c-1.48-0.729-2.691,0.024-2.691,1.674v47.357
		c0,1.65,1.211,2.403,2.691,1.674l40.114-19.766V330.633z"/>
	<path style="fill:#92DEEE;" d="M195.191,310.866l-40.114,19.766v11.173l40.114,19.766c1.48,0.729,2.691-0.024,2.691-1.674V312.54
		C197.882,310.89,196.671,310.137,195.191,310.866z"/>
	<path style="fill:#92DEEE;" d="M155.078,350.059c0,1.65-1.35,3-3,3h-26.35c-1.65,0-3-1.35-3-3v-26.477c0-1.65,1.35-3,3-3h26.35
		c1.65,0,3,1.35,3,3V350.059z"/>
	<path style="fill:#92DEEE;" d="M291.218,196.376c0.665,0,1.321-0.039,1.971-0.101v-0.286c0-13.641,4.083-26.314,11.075-36.843
		c-3.561-2.929-8.099-4.69-13.046-4.69c-11.438,0-20.707,9.384-20.707,20.96S279.78,196.376,291.218,196.376z"/>
</g>
<path style="fill:#FFFFFF;" d="M494.169,499.631l-53.7-229.535c-2.015,1.01-4.275,1.593-6.671,1.593h-10.445
	c-4.003,32.642-31.49,57.912-64.822,57.912c-33.341,0-60.829-25.28-64.823-57.932c0.001,0.006,0.001,0.013,0.002,0.02h-10.446
	c-2.112,0-4.123-0.448-5.951-1.245l-49.851,229.17c-0.585,2.687,1.187,4.886,3.937,4.886H490.31
	C493.057,504.5,494.795,502.309,494.169,499.631z"/>
<g style="opacity:0.1;">
	<path style="fill:#37005E;" d="M295.636,281.386c-0.002-0.005-0.003-0.011-0.004-0.017c-0.55-1.98-1.009-3.998-1.376-6.05
		c-0.047-0.261-0.095-0.522-0.139-0.785c-0.093-0.559-0.183-1.119-0.262-1.683c-0.055-0.386-0.101-0.775-0.149-1.163h-10.443
		c-2.112,0-4.123-0.448-5.951-1.245l-49.851,229.17c-0.585,2.687,1.187,4.886,3.937,4.886h20.705c-2.75,0-4.522-2.199-3.937-4.886
		L295.636,281.386z"/>
</g>
<g>
	<path style="fill:#FFB98A;" d="M433.798,228.245h-9.924v35.221c0,2.787-0.19,5.527-0.521,8.224h10.445c8.25,0,15-6.75,15-15
		v-13.444C448.798,234.995,442.048,228.245,433.798,228.245z"/>
	<path style="fill:#FFB98A;" d="M293.188,263.465v-35.221h-9.926c-8.25,0-15,6.75-15,15v13.444c0,8.25,6.75,15,15,15h10.446
		C293.379,268.993,293.188,266.252,293.188,263.465z"/>
	<path style="fill:#FFB98A;" d="M389.29,359.374h-13.014v-32.262c-5.645,1.609-11.593,2.489-17.746,2.489
		c-6.154,0-12.103-0.88-17.748-2.49v32.262H327.77c-30.057,0-54.422,24.661-54.422,55.081V504.5h170.363v-90.045
		C443.712,384.034,419.347,359.374,389.29,359.374z"/>
</g>
<path style="fill:#FFFFFF;" d="M358.53,129.856c-36.088,0-65.342,29.608-65.342,66.133V224.1c0-36.525,29.254-66.134,65.342-66.134
	c36.086,0,65.344,29.609,65.344,66.134v-28.111C423.874,159.464,394.616,129.856,358.53,129.856z"/>
<g style="opacity:0.1;">
	<path style="fill:#37005E;" d="M318.509,171.842c8.311-21.428,27.346-37.402,50.428-41.142c-3.391-0.549-6.863-0.844-10.406-0.844
		c-36.088,0-65.342,29.608-65.342,66.133V224.1C293.188,202.842,303.109,183.94,318.509,171.842z"/>
</g>
<path style="fill:#FFD5B3;" d="M423.874,263.465c0,36.526-29.258,66.136-65.344,66.136l0,0c-36.088,0-65.342-29.61-65.342-66.136
	V224.1c0-36.525,29.254-66.134,65.342-66.134l0,0c36.086,0,65.344,29.609,65.344,66.134V263.465z"/>
<path id="SVGCleanerId_0" style="fill:#A75436;" d="M358.53,157.966c-30.293,0-55.761,20.867-63.162,49.17
	c-0.163,0.659-0.32,1.31-0.465,1.941h31.027c18.6,0,35.374-7.871,47.27-20.496c-0.001,0.001-0.003,0.003-0.004,0.004
	c11.894,12.621,28.661,20.492,47.258,20.492h1.705c-0.122-0.531-0.252-1.087-0.386-1.66
	C414.468,178.97,388.922,157.966,358.53,157.966z"/>
<g style="opacity:0.1;">
	<path style="fill:#37005E;" d="M314.001,263.465V224.1c0-32.939,23.795-60.244,54.935-65.29c-3.391-0.549-6.863-0.844-10.406-0.844
		c-36.088,0-65.342,29.609-65.342,66.134v39.365c0,36.526,29.254,66.136,65.342,66.136c3.543,0,7.016-0.295,10.406-0.844
		C337.796,323.711,314.001,296.405,314.001,263.465z"/>
</g>
<g>
	<path id="SVGCleanerId_0_1_" style="fill:#A75436;" d="M358.53,157.966c-30.293,0-55.761,20.867-63.162,49.17
		c-0.163,0.659-0.32,1.31-0.465,1.941h31.027c18.6,0,35.374-7.871,47.27-20.496c-0.001,0.001-0.003,0.003-0.004,0.004
		c11.894,12.621,28.661,20.492,47.258,20.492h1.705c-0.122-0.531-0.252-1.087-0.386-1.66
		C414.468,178.97,388.922,157.966,358.53,157.966z"/>
</g>
<path style="fill:#FFFFFF;" d="M418.712,504.5v-74c0-16.845-13.655-30.5-30.5-30.5c-14.432,0-26.514,10.027-29.682,23.492
	C355.362,410.027,343.28,400,328.849,400c-16.845,0-30.5,13.655-30.5,30.5v74H418.712z"/>
<g style="opacity:0.1;">
	<path style="fill:#37005E;" d="M339.177,401.795c-3.225-1.162-6.702-1.795-10.328-1.795c-16.845,0-30.5,13.655-30.5,30.5v74h20.652
		v-74C319.001,417.279,327.414,406.027,339.177,401.795z"/>
</g>
<path d="M263.459,112.458c2.562,2.603,6.118,4.096,9.757,4.096c3.64,0,7.196-1.493,9.762-4.099l43.056-43.788
	c7.479-7.598,11.599-17.689,11.599-28.417c0-10.727-4.119-20.819-11.597-28.417C318.527,4.202,308.536,0,297.899,0
	c-9.077,0-17.688,3.062-24.683,8.702C266.221,3.06,257.612,0,248.536,0c-10.636,0-20.629,4.202-28.137,11.832
	c-7.477,7.598-11.595,17.69-11.595,28.418s4.118,20.819,11.593,28.414L263.459,112.458z M231.091,22.353
	C235.756,17.611,241.952,15,248.536,15c6.582,0,12.777,2.611,17.442,7.352l1.891,1.923c1.41,1.433,3.336,2.24,5.346,2.241
	c0.001,0,0.001,0,0.002,0c2.01,0,3.935-0.806,5.345-2.238l1.893-1.923C285.121,17.611,291.316,15,297.899,15
	c6.583,0,12.778,2.611,17.443,7.354c4.7,4.776,7.289,11.131,7.289,17.896s-2.588,13.12-7.291,17.897l-42.124,42.84L231.09,58.145
	c-4.698-4.774-7.286-11.129-7.286-17.895S226.391,27.128,231.091,22.353z"/>
<path d="M141.414,227.262h5.425c4.142,0,7.5-3.358,7.5-7.5s-3.358-7.5-7.5-7.5h-1.893v-8.981c0-4.142-3.358-7.5-7.5-7.5
	s-7.5,3.358-7.5,7.5v12.467C129.947,222.097,135.091,227.262,141.414,227.262z"/>
<path d="M113.5,202.231v-9.367c0-4.142-3.358-7.5-7.5-7.5s-7.5,3.358-7.5,7.5v9.367c0,4.142,3.358,7.5,7.5,7.5
	S113.5,206.373,113.5,202.231z"/>
<path d="M171.806,209.731c4.142,0,7.5-3.358,7.5-7.5v-9.367c0-4.142-3.358-7.5-7.5-7.5s-7.5,3.358-7.5,7.5v9.367
	C164.306,206.373,167.664,209.731,171.806,209.731z"/>
<path d="M170.424,249.177c1.54-3.846-0.33-8.211-4.175-9.751c-3.847-1.54-8.211,0.33-9.75,4.175
	c-2.759,6.893-9.315,11.346-16.701,11.346c-7.388,0-13.945-4.454-16.704-11.346c-1.54-3.846-5.904-5.713-9.75-4.175
	c-3.845,1.54-5.715,5.905-4.175,9.751c5.052,12.618,17.075,20.771,30.63,20.771C153.35,269.948,165.372,261.794,170.424,249.177z"/>
<path d="M360.825,262.046h2.391c4.143,0,7.5-3.358,7.5-7.5c0-3.634-2.584-6.664-6.016-7.353v-2.046c0-4.142-3.357-7.5-7.5-7.5
	s-7.5,3.358-7.5,7.5v5.731C349.7,257.037,354.69,262.046,360.825,262.046z"/>
<path d="M335.97,238.53v-8.558c0-4.142-3.358-7.5-7.5-7.5c-4.143,0-7.5,3.358-7.5,7.5v8.558c0,4.142,3.357,7.5,7.5,7.5
	C332.612,246.03,335.97,242.672,335.97,238.53z"/>
<path d="M388.593,222.472c-4.143,0-7.5,3.358-7.5,7.5v8.558c0,4.142,3.357,7.5,7.5,7.5s7.5-3.358,7.5-7.5v-8.558
	C396.093,225.83,392.735,222.472,388.593,222.472z"/>
<path d="M383.756,271.912c-3.843-1.539-8.211,0.329-9.751,4.174c-2.422,6.049-8.176,9.958-14.658,9.958s-12.236-3.909-14.658-9.958
	c-1.54-3.845-5.905-5.716-9.751-4.174c-3.845,1.54-5.714,5.905-4.175,9.75c4.715,11.774,15.935,19.382,28.584,19.382
	c12.649,0,23.869-7.608,28.584-19.382C389.47,277.817,387.6,273.452,383.756,271.912z"/>
<path d="M501.472,497.923l-52.545-224.594c4.525-4.119,7.371-10.053,7.371-16.64v-13.444c0-11.433-8.574-20.895-19.629-22.311
	c0,0-5.136-21.794-5.295-22.243v-2.702c0-40.602-32.678-73.633-72.844-73.633c-22.63,0-42.881,10.488-56.252,26.906
	c-3.399-1.472-7.133-2.305-11.061-2.305c-15.554,0-28.207,12.767-28.207,28.46c0,3.003,0.467,5.898,1.326,8.619
	c-6.623,5.211-10.898,13.321-10.898,22.432c0,9.564,4.706,18.036,11.898,23.199c-2.868,3.776-4.574,8.482-4.574,13.579v13.444
	c0,6.936,3.157,13.148,8.107,17.279l-11.117,51.104c-4.539-3.706-10.306-5.938-16.587-5.938h-35.783v-6.594
	c0-5.3-4.002-9.453-9.11-9.453c-1.502,0-2.981,0.354-4.396,1.051l-19.592,9.653v-17.415c20.738-9.93,36.501-28.802,42.373-51.669
	h6.992c12.407,0,22.5-10.093,22.5-22.5v-13.445c0-12.407-10.093-22.5-22.5-22.5h-4.49v-4.048V98.908
	c0-7.95-6.431-14.417-14.336-14.417h-62.669c-11.466,0-21.696,5.415-28.335,13.836H96.856c-19.965,0-36.208,16.398-36.208,36.555
	v47.333v4.048H56.16c-12.407,0-22.5,10.093-22.5,22.5v13.445c0,12.407,10.093,22.5,22.5,22.5h6.99
	c5.872,22.867,21.635,41.738,42.374,51.669v17.417L85.93,304.14c-1.415-0.698-2.894-1.052-4.396-1.052
	c-5.108,0-9.11,4.152-9.11,9.453v6.594H36.641c-14.577,0-26.436,11.963-26.436,26.667v152.31c0,7.659,6.197,13.889,13.814,13.889
	h466.29c3.613,0,6.92-1.556,9.072-4.269C501.532,505.018,502.295,501.443,501.472,497.923z M441.298,243.245v13.444
	c0,4.136-3.364,7.5-7.5,7.5h-2.44c0.002-0.242,0.017-28.444,0.017-28.444h2.424C437.933,235.745,441.298,239.109,441.298,243.245z
	 M358.53,137.356c24.424,0,45.346,15.429,53.814,37.171c-13.332-14.775-32.52-24.061-53.814-24.061s-40.481,9.287-53.813,24.061
	C313.185,152.785,334.107,137.356,358.53,137.356z M411.636,200.883c-10.569-1.625-20.25-6.131-28.176-12.81
	c2.936-3.819,5.512-7.959,7.68-12.37C400.112,181.936,407.268,190.658,411.636,200.883z M377.829,168.834
	c-9.633,19.836-29.709,32.744-51.898,32.744h-20.798c8.728-21.184,29.372-36.111,53.397-36.111
	C365.296,165.466,371.789,166.661,377.829,168.834z M283.263,264.189c-4.136,0-7.5-3.364-7.5-7.5v-13.444c0-4.136,3.364-7.5,7.5-7.5
	h2.426c0,0,0.016,28.202,0.019,28.444H283.263z M284.307,203.009l-3.669,16.866c-6.812-0.529-12.199-6.333-12.199-13.408
	c0-3.832,1.584-7.288,4.114-9.739C275.871,199.69,279.881,201.88,284.307,203.009z M291.218,161.956c0.895,0,1.77,0.092,2.614,0.266
	c-4.016,7.83-6.687,16.471-7.688,25.617c-4.771-2.031-8.134-6.833-8.134-12.423C278.011,167.995,283.935,161.956,291.218,161.956z
	 M283.263,279.189h4.115c5.325,24.646,22.883,44.718,45.904,53.345v19.339h-5.512c-34.143,0-61.922,28.074-61.922,62.581V497
	h-30.145l47.382-217.815C283.145,279.185,283.203,279.189,283.263,279.189z M241.165,334.134c6.306,0,11.437,5.234,11.437,11.667
	v2.948L220.353,497h-62.467l64.088-60.013c2.441-2.285,3.864-5.503,3.904-8.828c0.04-3.326-1.306-6.577-3.692-8.92l-15.331-15.056
	l25.201-24.749c2.381-2.339,3.706-5.469,3.731-8.815c0.025-3.345-1.254-6.495-3.6-8.868l-26.806-27.124v-0.493L241.165,334.134
	L241.165,334.134z M205.382,359.897v-3.93l14.363,14.534l-25.281,24.829c-2.397,2.354-3.717,5.499-3.716,8.855
	c0,3.356,1.32,6.501,3.716,8.853l15.2,14.927l-55.672,52.132l12.753-38.753c1.295-3.935-0.845-8.174-4.779-9.469
	c-3.937-1.296-8.174,0.845-9.469,4.779l-13.593,41.304L100.459,361.14l15.394-7.585c0.863,2.426,2.575,4.454,4.799,5.689v40.227
	c0,4.142,3.358,7.5,7.5,7.5c4.142,0,7.5-3.358,7.5-7.5v-38.913h6.504v38.913c0,4.142,3.358,7.5,7.5,7.5s7.5-3.358,7.5-7.5v-40.229
	c2.224-1.235,3.935-3.262,4.798-5.688l15.396,7.586l-13.005,39.516c-1.295,3.935,0.845,8.174,4.779,9.469
	c3.933,1.295,8.173-0.845,9.469-4.779l12.345-37.51l0.938,0.462c1.416,0.698,2.895,1.052,4.397,1.052
	C201.38,369.35,205.382,365.197,205.382,359.897z M130.228,345.559v-17.477h17.35v17.477H130.228z M190.382,350.84l-27.805-13.701
	v-1.842l27.805-13.701L190.382,350.84L190.382,350.84z M229.149,208.763v13.445c0,4.136-3.365,7.5-7.5,7.5h-4.653
	c0.097-1.611,0.163-3.23,0.163-4.867v-23.578h4.49C225.784,201.263,229.149,204.627,229.149,208.763z M140.154,99.491h62.005v42.791
	c-2.713-2.702-5.769-5.162-9.211-7.342c-13.032-8.254-31.215-12.44-54.044-12.44c-7.109,0-13.766,0.407-19.959,1.215v-2.668
	C118.945,109.161,128.459,99.491,140.154,99.491z M75.648,134.882c0-11.886,9.514-21.555,21.208-21.555h7.909
	c-0.532,2.49-0.82,5.071-0.82,7.719v5.675c-7.239,2.022-13.621,4.757-19.086,8.219c-3.442,2.18-6.498,4.64-9.211,7.342V134.882z
	 M56.16,229.708c-4.135,0-7.5-3.364-7.5-7.5v-13.445c0-4.136,3.365-7.5,7.5-7.5h4.488v23.578c0,1.636,0.065,3.255,0.163,4.867
	L56.16,229.708L56.16,229.708z M75.648,224.841v-42.626c0-15.938,5.638-27.257,17.237-34.603
	c10.594-6.71,26.077-10.112,46.019-10.112c19.941,0,35.424,3.402,46.018,10.112c11.599,7.346,17.237,18.665,17.237,34.603v42.626
	c0,35.352-28.376,64.112-63.255,64.112C104.024,288.954,75.648,260.193,75.648,224.841z M138.904,303.954
	c6.331,0,12.481-0.784,18.381-2.225v12.748c-1.537-0.882-3.311-1.395-5.207-1.395h-26.35c-1.895,0-3.669,0.512-5.205,1.394v-12.747
	C126.422,303.17,132.573,303.954,138.904,303.954z M87.423,321.598l27.805,13.701v1.843l-27.805,13.701V321.598z M81.534,369.351
	c1.501,0,2.979-0.353,4.395-1.051l0.941-0.464l36.946,112.262l-55.673-52.132l15.198-14.927c2.397-2.353,3.717-5.498,3.717-8.854
	c0.001-3.357-1.319-6.501-3.716-8.855L58.061,370.5l14.362-14.533v3.931C72.423,365.198,76.425,369.351,81.534,369.351z
	 M25.204,345.801c0-6.433,5.13-11.667,11.436-11.667h35.782v0.493l-26.805,27.124c-2.346,2.374-3.625,5.523-3.6,8.869
	c0.025,3.345,1.35,6.475,3.731,8.814l25.201,24.749L55.62,419.24c-2.386,2.343-3.731,5.594-3.692,8.919
	c0.04,3.325,1.462,6.543,3.903,8.828L119.921,497H25.204V345.801z M436.212,497h-10v-17c0-4.142-3.357-7.5-7.5-7.5
	s-7.5,3.358-7.5,7.5v17H305.849v-66.5c0-12.682,10.317-23,23-23c10.725,0,19.928,7.283,22.381,17.71
	c0.797,3.388,3.82,5.782,7.301,5.782s6.504-2.395,7.301-5.782c2.453-10.427,11.656-17.71,22.381-17.71c12.683,0,23,10.318,23,23V444
	c0,4.142,3.357,7.5,7.5,7.5s7.5-3.358,7.5-7.5v-13.5c0-20.953-17.047-38-38-38c-11.898,0-22.664,5.428-29.682,14.213
	c-7.018-8.786-17.783-14.213-29.682-14.213c-20.953,0-38,17.047-38,38V497h-10v-82.545c0-26.236,21.049-47.581,46.922-47.581h13.012
	c4.142,0,7.5-3.358,7.5-7.5v-23.016c3.35,0.479,6.768,0.743,10.248,0.743c3.461,0,6.879-0.255,10.246-0.731v23.003
	c0,4.142,3.357,7.5,7.5,7.5h13.014c25.873,0,46.922,21.345,46.922,47.581L436.212,497L436.212,497z M451.212,497v-82.545
	c0-34.507-27.778-62.581-61.922-62.581h-5.514v-19.309c6.673-2.493,12.991-5.984,18.794-10.442
	c3.285-2.523,3.901-7.232,1.378-10.517c-2.524-3.284-7.229-3.902-10.517-1.378c-10.109,7.767-22.178,11.873-34.901,11.873
	c-31.895,0-57.842-26.304-57.842-58.636V224.1c0-2.55,0.18-5.058,0.492-7.523h24.75c17.686,0,34.288-6.501,47.177-17.58
	c11.708,10.112,26.575,16.411,42.754,17.421c0.327,2.517,0.513,5.077,0.513,7.682v39.365c0,7.53-1.387,14.858-4.12,21.78
	c-1.521,3.853,0.368,8.209,4.221,9.73c3.853,1.522,8.209-0.367,9.73-4.221c1.487-3.767,2.638-7.632,3.485-11.566h4.107
	c0.365,0,0.728-0.01,1.089-0.028L485.85,497H451.212z"/>
<g>
</g>
<g>
</g>
<g>
</g>
<g>
</g>
<g>
</g>
<g>
</g>
<g>
</g>
<g>
</g>
<g>
</g>
<g>
</g>
<g>
</g>
<g>
</g>
<g>
</g>
<g>
</g>
<g>
</g>
</svg>
